Patient4_TMGait_0pt6_02_right_40_EMG.mot
version=1
nRows=16
nColumns=33
inDegrees=no
endheader
time	1LAddLong	2LGlutMax	3LGlutMed	4LIliopsoas	5LSemiMemb	6LBicFemLong	7LRecFem	8LVastMed	9LVastLat	10LGasMed	11LTibAnt	12lTibPost	13LPeroneusLong	14LSol	15LExtDigLong	16LFlexDigLong	17RAddLong	18RGlutMax	19RGlutMed	20RIliopsoas	21RSemiMemb	22RBicFemLong	23RRecFem	24RVastMed	25RVastLat	26RGasMed	27RTibAnt	28RTibPost	29RPeroneusLong	30RSol	31RExtDigLong	32RFlexDigLong
48.23	0.003662	-0.13748	0.004425	-0.005188	0.003052	0.14877	0.056	-0.004883	-0.19226	-0.6778	0.025635	0.06424	-0.15015	0.027008	0.007935	-0.059967	-0.097198	-0.11643	-0.041809	-0.093994	-0.048676	-0.18478	-0.031128	-0.090179	0.010529	-0.00824	-0.17716	-0.005951	-0.065918	0.071564	-0.004883	-0.013885
48.231	-0.006409	-0.10986	0.15259	0.000916	-0.032959	0.042572	0.012054	0.027008	-0.11078	-0.53711	0.019684	0.084686	-0.22156	0.081482	0.036926	0.017548	-0.060272	-0.08316	0.10132	-0.22842	-0.02594	-0.168	-0.047455	-0.097046	0.024719	-0.006866	-0.11719	-0.008545	-0.001068	0.12665	-0.006714	-0.002441
48.232	-0.010071	-0.096436	0.15579	0.006104	-0.056763	-0.12741	-0.084381	-0.006866	-0.03006	-0.14145	0.019684	0.003357	-0.2385	0.18509	0.041809	0.003357	-0.033264	-0.13092	0.001526	-0.16174	-0.023956	-0.16159	-0.032043	-0.16235	0.014954	-0.013885	0.080109	-0.006561	0.066681	0.074463	-0.003815	0.006409
48.233	-0.012665	-0.056305	0.14358	-0.007629	-0.087738	-0.13901	-0.12833	-0.003815	0.022278	-0.014954	0.015869	-0.044403	-0.05249	-0.064392	0.028229	-0.044403	-0.025787	-0.14603	-0.091705	0.015106	-0.04715	-0.13702	-0.020294	-0.13473	0.028229	0.001068	0.48233	-0.004578	0.097961	0.002441	0.000458	0.002747
48.234	-0.01236	-0.035095	0.089874	-0.000763	-0.096436	-0.014191	-0.08194	-0.001526	0.04303	0.019989	-0.000153	-0.005341	0.19486	0.22949	0.03418	-0.049133	-0.003967	-0.084381	-0.014038	0.25085	-0.04364	-0.13397	0.02121	-0.095673	0.009308	0.00351	0.75455	-0.003357	-0.11398	-0.069427	-0.005798	0.005341
48.235	-0.000916	-0.002747	0.084686	0.02243	-0.092773	0.044556	-0.048676	-0.008545	0.050659	0.30731	-0.00473	-0.045166	0.10895	-0.19852	0.032349	-0.026093	0.009308	-0.069733	-0.079193	0.39597	-0.042572	-0.096436	0.086823	-0.06073	0.021362	0.012512	0.35004	-0.008545	-0.11414	-0.11597	0.000305	0.00351
48.236	0.008087	0.055847	0.12955	-0.006714	-0.022125	0.08667	-0.045929	-0.013885	0.10468	0.22614	-0.004578	-0.020599	-0.018311	-0.27878	0.023499	-0.039063	0.003967	-0.089264	-0.21591	0.26276	-0.036774	-0.10162	0.11017	0.009918	0.029449	0.001068	-0.55679	-0.00351	0.20798	-0.11887	-0.009918	0.00351
48.237	0.009766	0.09964	0.11505	0.001526	-0.006104	0.2803	0.006256	-0.015717	0.048065	-0.26077	0.001373	-0.005646	-0.052948	0.45929	0.038452	-0.077667	0.002899	-0.077515	-0.21103	0.10269	-0.036926	-0.081787	0.17364	0.00412	0.029755	0.007629	-0.69397	-0.004272	0.35095	-0.065918	-0.001221	-0.000458
48.238	0.004425	0.056305	0.088806	0.009766	-0.00473	0.45685	0.03952	-0.011292	0.006714	-0.22232	0.005188	0.007172	0.008392	0.87692	0.003357	-0.098267	0.004425	-0.023804	0.033722	0.012207	-0.024719	-0.057678	0.14954	0.008392	-0.011902	-0.00885	-0.37842	-0.004425	0.17212	0.01297	-0.000153	0.003052
48.239	0.014038	0.028687	0.004425	-0.004883	0.077515	0.34592	0.043488	0.008087	0.016022	0.005646	-0.001984	0.000763	0.18356	0.52689	-0.014191	-0.06073	0.020294	-0.070801	0.20737	-0.026855	-0.021362	-0.078735	0.14618	0.053558	0.024872	-0.007629	-0.17334	-0.007782	0.063934	0.011749	-0.005341	-0.00885
48.24	0.021515	0.042419	-0.042725	0.005188	0.078583	-0.071259	0.040131	-0.02121	0.009155	0.18433	-0.000153	0.030365	0.14923	0.19806	0.017548	0.09079	0.001678	-0.039673	0.32105	-0.021973	-0.03891	-0.08606	0.11124	0.018311	0.011444	0.001678	-0.33035	-0.004578	0.083313	0.02121	0.00412	-0.001678
48.241	0.020142	-0.041351	-0.015564	0.016174	0.077667	-0.091095	0.039215	-0.051727	0.018158	0.40787	-0.011292	0.080872	0.13397	0.15228	0.039063	0.12222	-0.004425	-0.043793	0.11643	-0.014191	-0.056152	-0.091553	0.14465	-0.006104	-0.004883	-0.001984	-0.29358	-0.00473	0.032196	-0.015259	-0.004425	-0.021667
48.242	0.019226	-0.071564	-0.056	0.006866	0.062714	-0.045471	0.057678	0.001678	0.001831	-0.13748	0.00473	0.14145	0.079956	-0.1088	0.018463	0.047913	-0.011292	-0.048523	0.032196	-0.015106	-0.050964	-0.091705	0.096436	0	-0.024414	-0.007782	-0.064545	-0.003967	0.020294	-0.021057	-0.002899	-0.016174
48.243	0.011444	-0.061035	-0.04364	0.034485	0.006561	-0.38132	0.054779	0.000153	0.023956	-0.55435	0.005646	-0.009918	0.025024	-0.1358	-0.003815	0.014191	-0.011292	-0.043335	-0.005493	-0.021515	-0.062866	-0.10468	0.030365	-0.00412	-0.016632	-0.004578	-0.065918	-0.008698	0.094604	-0.044708	-0.003967	-0.011139
48.244	0.008545	-0.083466	-0.018005	0.001068	-0.005798	-0.55542	0.05188	-0.00824	0.018921	-0.29694	0.005341	-0.16556	0.054779	-0.20905	0.020599	-0.00946	-0.00946	-0.02533	0.041962	0.005493	-0.072937	-0.10986	-0.034637	-0.027008	-0.050049	-0.011292	-0.16296	-0.002899	0.1857	-0.071106	-0.005798	-0.015717
48.245	0.004425	-0.099945	-0.003662	-0.011902	-0.045624	-0.48401	0.035706	-0.007324	0.020447	-0.11383	0.011292	-0.050812	-0.21942	-0.41321	0.019226	-0.004272	0.004425	-0.006714	0.007019	0.03006	-0.070496	-0.10361	-0.066071	-0.075531	-0.053406	-0.00824	-0.023499	-0.00412	0.28564	-0.056305	-0.006561	-0.010376
